<?xml version="1.0" standalone="no"?>
<!DOCTYPE svg PUBLIC "-//W3C//DTD SVG 20010904//EN"
 "http://www.w3.org/TR/2001/REC-SVG-20010904/DTD/svg10.dtd">
<svg version="1.0" xmlns="http://www.w3.org/2000/svg"
 width="512.000000pt" height="512.000000pt" viewBox="0 0 512.000000 512.000000"
 preserveAspectRatio="xMidYMid meet">
<metadata>
Created by potrace 1.13, written by Peter Selinger 2001-2015
</metadata>
<g transform="translate(0.000000,512.000000) scale(0.100000,-0.100000)"
fill="#000000" stroke="none">
<path d="M2345 4650 c-401 -46 -763 -192 -1075 -434 -95 -74 -272 -249 -349
-346 -229 -288 -367 -596 -432 -965 -19 -109 -23 -165 -23 -345 0 -180 4 -236
23 -345 58 -329 176 -612 369 -885 83 -117 325 -363 445 -452 272 -201 572
-329 912 -389 187 -33 503 -33 690 0 356 63 667 200 945 415 95 74 272 249
349 346 228 287 367 597 432 965 19 109 23 165 23 345 0 180 -4 236 -23 345
-77 438 -262 801 -566 1114 -322 331 -703 532 -1155 611 -142 24 -434 35 -565
20z m367 -294 c278 -15 607 -132 863 -307 388 -265 654 -666 757 -1139 20 -92
22 -134 23 -345 0 -213 -3 -252 -23 -350 -152 -727 -700 -1275 -1427 -1427
-98 -20 -137 -23 -350 -23 -211 1 -253 3 -345 23 -726 157 -1276 707 -1420
1422 -41 204 -41 496 0 700 144 715 704 1275 1420 1420 99 20 310 39 375 33
17 -1 74 -4 127 -7z"/>
<path d="M2276 4159 c-668 -117 -1201 -654 -1316 -1323 -27 -161 -27 -391 0
-552 115 -672 652 -1209 1324 -1324 161 -27 391 -27 552 0 587 101 1079 526
1266 1094 107 326 106 695 -1 1017 -191 569 -678 989 -1265 1089 -158 27 -405
26 -560 -1z m134 -609 l0 -170 80 0 80 0 0 170 0 170 115 0 115 0 0 -173 0
-173 98 -11 c195 -24 316 -80 375 -174 56 -91 58 -248 5 -352 -34 -68 -124
-154 -200 -192 l-69 -34 38 -6 c199 -34 333 -107 383 -211 47 -97 43 -242 -10
-351 -76 -155 -292 -271 -541 -290 l-79 -6 0 -173 0 -174 -115 0 -115 0 0 170
0 170 -80 0 -80 0 0 -170 0 -170 -115 0 -115 0 0 170 0 170 -185 0 -185 0 0
89 0 89 43 7 c104 16 150 28 168 46 18 18 19 41 19 589 0 548 -1 571 -19 589
-18 18 -64 30 -168 46 l-43 7 0 89 0 89 185 0 185 0 0 170 0 170 115 0 115 0
0 -170z"/>
<path d="M2410 2919 l0 -232 168 6 c92 3 184 11 204 17 50 15 97 56 119 105
24 53 26 173 2 222 -37 79 -146 113 -360 113 l-133 0 0 -231z"/>
<path d="M2410 2219 l0 -251 218 4 c198 4 222 6 277 28 77 30 139 90 155 150
17 62 7 153 -21 194 -64 94 -180 126 -461 126 l-168 0 0 -251z"/>
</g>
</svg>
