<?xml version="1.0" standalone="no"?>
<!DOCTYPE svg PUBLIC "-//W3C//DTD SVG 20010904//EN"
 "http://www.w3.org/TR/2001/REC-SVG-20010904/DTD/svg10.dtd">
<svg version="1.0" xmlns="http://www.w3.org/2000/svg"
 width="200.000000pt" height="199.000000pt" viewBox="0 0 200.000000 199.000000"
 preserveAspectRatio="xMidYMid meet">
<metadata>
Created by potrace 1.13, written by Peter Selinger 2001-2015
</metadata>
<g transform="translate(0.000000,199.000000) scale(0.100000,-0.100000)"
fill="#000000" stroke="none">
<path d="M29 1961 l-29 -29 0 -136 0 -136 1000 0 1000 0 0 136 0 136 -29 29
-29 29 -942 0 -942 0 -29 -29z m1615 -81 c31 -30 27 -87 -8 -116 -36 -32 -77
-31 -110 2 -36 37 -34 77 4 116 26 25 36 29 63 24 18 -4 41 -15 51 -26z m243
-2 c41 -38 28 -105 -26 -128 -61 -25 -126 40 -101 101 7 16 20 34 29 39 28 16
74 11 98 -12z"/>
<path d="M1053 978 c-12 -19 -93 -269 -93 -287 0 -8 14 -30 32 -48 l32 -33
-37 0 c-40 0 -39 -1 -118 123 -28 43 -57 81 -66 84 -19 7 -47 -8 -51 -29 -4
-20 125 -236 148 -248 10 -6 41 -10 69 -10 47 0 52 2 67 33 9 17 28 44 42 60
l26 27 -29 30 -28 29 36 108 c19 59 38 115 42 124 13 34 -53 67 -72 37z"/>
<path d="M1392 978 c-17 -17 -16 -28 23 -139 19 -56 35 -108 35 -116 0 -8 -11
-29 -25 -47 -23 -30 -24 -35 -10 -46 9 -8 28 -33 42 -57 25 -43 25 -43 84 -43
71 0 77 6 155 141 63 111 67 144 20 144 -26 0 -36 -10 -91 -100 -59 -95 -64
-100 -98 -103 -21 -2 -37 0 -37 4 0 5 14 22 31 40 l31 32 -42 129 c-23 70 -49
138 -56 151 -16 24 -43 29 -62 10z"/>
<path d="M1185 606 c-98 -44 -133 -158 -76 -247 37 -59 85 -83 156 -77 90 8
155 78 155 168 0 118 -129 203 -235 156z"/>
<path d="M807 439 c-91 -46 -98 -52 -95 -77 5 -42 43 -40 137 7 53 27 94 41
119 41 39 0 39 0 39 40 l0 40 -51 -1 c-41 0 -71 -10 -149 -50z"/>
<path d="M1493 450 c0 -40 0 -40 39 -40 25 0 66 -14 118 -40 86 -43 124 -50
139 -23 16 30 -6 51 -99 98 -73 37 -100 45 -143 45 l-54 0 0 -40z"/>
<path d="M928 355 l-86 -44 -46 -139 c-26 -76 -44 -146 -40 -155 4 -11 17 -17
35 -17 34 0 32 -2 85 152 l36 107 64 27 c35 15 64 28 64 29 0 2 -7 18 -15 38
-8 19 -11 37 -8 41 11 11 -1 6 -89 -39z"/>
<path d="M1469 342 l-16 -37 51 -26 50 -27 43 -123 42 -124 33 0 c47 0 46 17
-5 170 l-43 130 -70 37 -69 37 -16 -37z"/>
</g>
</svg>
