<?xml version="1.0" standalone="no"?>
<!DOCTYPE svg PUBLIC "-//W3C//DTD SVG 20010904//EN"
 "http://www.w3.org/TR/2001/REC-SVG-20010904/DTD/svg10.dtd">
<svg version="1.0" xmlns="http://www.w3.org/2000/svg"
 width="500.000000pt" height="500.000000pt" viewBox="0 0 500.000000 500.000000"
 preserveAspectRatio="xMidYMid meet">
<metadata>
Created by potrace 1.13, written by Peter Selinger 2001-2015
</metadata>
<g transform="translate(0.000000,500.000000) scale(0.100000,-0.100000)"
fill="#000000" stroke="none">
<path d="M430 3765 l0 -715 350 0 c214 0 369 -4 402 -11 188 -39 356 -198 412
-388 21 -72 21 -230 0 -302 -42 -144 -157 -281 -286 -343 -40 -19 -97 -39
-126 -45 -33 -7 -188 -11 -402 -11 l-350 0 0 -715 0 -716 1503 3 1502 3 117
32 c510 138 877 520 994 1038 24 107 30 351 11 471 -21 127 -58 254 -104 355
l-36 79 36 79 c132 288 154 658 57 959 -135 417 -471 756 -875 882 -188 58
-68 54 -1702 57 l-1503 4 0 -716z m880 340 c645 -104 1161 -570 1325 -1197 38
-146 49 -241 49 -408 0 -226 -31 -392 -114 -603 -184 -470 -614 -849 -1105
-971 -156 -39 -254 -49 -475 -50 l-205 -1 -3 357 -2 358 187 0 c278 0 423 37
592 148 179 118 313 299 378 509 24 80 27 102 27 253 0 151 -3 172 -28 255
-94 309 -331 540 -642 626 -66 18 -114 22 -296 26 l-218 5 0 354 0 354 218 0
c146 0 248 -5 312 -15z m2183 -18 c437 -136 718 -509 718 -952 0 -210 -56
-392 -174 -562 l-49 -73 49 -72 c118 -171 174 -353 174 -563 0 -261 -94 -494
-275 -683 -136 -142 -290 -230 -499 -284 -78 -20 -109 -21 -662 -25 -319 -3
-604 -3 -634 -1 l-54 3 109 80 c191 140 382 348 504 551 l51 84 259 0 c309 0
338 6 415 92 127 141 83 354 -90 434 -46 22 -63 24 -219 24 l-168 0 5 38 c3
20 11 101 18 179 12 136 6 297 -18 466 l-5 37 168 0 c156 0 173 2 219 24 128
60 190 195 151 331 -14 45 -29 69 -69 110 -81 81 -103 85 -408 85 l-258 0 -50
83 c-136 225 -328 430 -541 576 l-75 52 660 -3 660 -3 88 -28z"/>
</g>
</svg>
