<?xml version="1.0" standalone="no"?>
<!DOCTYPE svg PUBLIC "-//W3C//DTD SVG 20010904//EN"
 "http://www.w3.org/TR/2001/REC-SVG-20010904/DTD/svg10.dtd">
<svg version="1.0" xmlns="http://www.w3.org/2000/svg"
 width="225.000000pt" height="225.000000pt" viewBox="0 0 225.000000 225.000000"
 preserveAspectRatio="xMidYMid meet">
<metadata>
Created by potrace 1.13, written by Peter Selinger 2001-2015
</metadata>
<g transform="translate(0.000000,225.000000) scale(0.100000,-0.100000)"
fill="#000000" stroke="none">
<path d="M851 2215 c-334 -51 -565 -163 -637 -311 -22 -46 -26 -63 -21 -106
16 -128 155 -242 387 -316 332 -106 758 -106 1090 0 168 54 288 128 348 216
141 207 -97 422 -563 508 -124 23 -476 28 -604 9z"/>
<path d="M191 1507 c-1 -119 3 -166 14 -193 48 -114 198 -215 415 -277 170
-49 269 -61 505 -61 236 0 335 12 505 61 217 62 367 163 415 277 11 27 15 74
14 193 -1 87 -4 149 -8 138 -46 -143 -257 -265 -566 -328 -96 -19 -141 -22
-360 -22 -219 0 -264 3 -360 22 -309 63 -520 185 -566 328 -4 11 -7 -51 -8
-138z"/>
<path d="M190 1069 c0 -147 1 -158 26 -207 66 -133 277 -242 577 -299 131 -25
533 -25 664 0 218 41 403 116 500 201 28 26 63 69 77 98 25 49 26 60 26 207
l0 156 -21 -42 c-48 -96 -182 -189 -360 -247 -173 -56 -332 -79 -554 -79 -222
0 -381 23 -554 79 -178 58 -312 151 -360 247 l-21 42 0 -156z"/>
<path d="M190 640 c0 -142 2 -159 24 -205 47 -103 200 -204 388 -259 561 -162
1300 -29 1434 259 22 46 24 63 24 205 l0 155 -20 -43 c-60 -132 -284 -250
-580 -304 -166 -31 -504 -31 -670 0 -296 54 -520 172 -580 304 l-20 43 0 -155z"/>
</g>
</svg>
