<?xml version="1.0" standalone="no"?>
<!DOCTYPE svg PUBLIC "-//W3C//DTD SVG 20010904//EN"
 "http://www.w3.org/TR/2001/REC-SVG-20010904/DTD/svg10.dtd">
<svg version="1.0" xmlns="http://www.w3.org/2000/svg"
 width="1185.000000pt" height="883.000000pt" viewBox="0 0 1185.000000 883.000000"
 preserveAspectRatio="xMidYMid meet">
<metadata>
Created by potrace 1.13, written by Peter Selinger 2001-2015
</metadata>
<g transform="translate(0.000000,883.000000) scale(0.100000,-0.100000)"
fill="#000000" stroke="none">
<path d="M3769 7991 c-26 -27 -30 -37 -25 -64 18 -94 156 -85 156 10 0 40 -27
71 -67 79 -27 5 -37 1 -64 -25z"/>
<path d="M3701 7687 c-45 -26 -65 -93 -41 -138 13 -22 61 -49 90 -49 65 0 114
71 90 130 -6 16 -20 36 -30 45 -24 22 -80 28 -109 12z m104 -32 c66 -65 -12
-173 -95 -130 -78 41 -52 155 35 155 25 0 44 -8 60 -25z"/>
<path d="M8023 6784 c-20 -20 -24 -31 -19 -57 12 -64 77 -87 121 -42 32 31 33
74 2 103 -31 30 -72 28 -104 -4z"/>
<path d="M5606 6724 c-32 -33 -35 -80 -6 -117 63 -79 192 2 145 92 -29 57 -94
69 -139 25z m117 -16 c24 -28 21 -65 -8 -93 -38 -39 -86 -32 -111 17 -18 35
-11 61 24 88 31 25 68 20 95 -12z"/>
<path d="M6603 6654 c-31 -15 -63 -66 -63 -99 0 -25 27 -72 52 -89 12 -9 41
-16 64 -16 114 0 146 152 44 205 -36 19 -57 19 -97 -1z m118 -33 c17 -17 29
-40 29 -55 0 -91 -99 -138 -161 -77 -39 39 -41 100 -4 136 36 37 97 35 136 -4z"/>
<path d="M7675 6598 c-28 -16 -35 -28 -35 -65 0 -22 7 -37 22 -47 76 -54 157
47 86 107 -23 20 -45 21 -73 5z"/>
<path d="M4010 6553 c-83 -75 -12 -201 95 -171 56 15 84 78 60 134 -28 67
-102 85 -155 37z m128 -19 c24 -28 29 -79 9 -105 -34 -45 -112 -48 -142 -6
-23 33 -19 90 8 114 43 40 87 39 125 -3z"/>
<path d="M4920 6477 c-14 -7 -28 -26 -34 -45 -20 -70 67 -121 120 -71 32 30
31 73 -1 104 -27 28 -48 31 -85 12z"/>
<path d="M6195 6455 c-35 -34 -33 -78 4 -116 33 -32 58 -36 100 -14 47 24 56
83 20 129 -28 36 -89 37 -124 1z"/>
<path d="M7370 6437 c-54 -27 -61 -99 -13 -137 71 -55 160 19 127 105 -7 17
-54 45 -76 45 -7 0 -24 -6 -38 -13z"/>
<path d="M5225 6375 c-14 -13 -25 -36 -25 -50 0 -35 42 -75 79 -75 35 0 71 39
71 77 0 32 -42 73 -75 73 -14 0 -37 -11 -50 -25z"/>
<path d="M7826 6339 c-32 -25 -35 -70 -6 -99 29 -29 74 -26 100 7 50 64 -30
143 -94 92z"/>
<path d="M6931 6264 c-27 -35 -27 -65 2 -92 31 -29 72 -28 103 4 20 19 24 31
19 52 -16 65 -85 85 -124 36z"/>
<path d="M7572 6220 c-52 -48 -12 -132 57 -122 60 8 80 74 36 117 -29 30 -64
32 -93 5z"/>
<path d="M5384 6219 c-22 -11 -44 -48 -44 -73 0 -7 9 -25 21 -40 27 -35 90
-37 113 -4 46 65 -21 151 -90 117z"/>
<path d="M4415 6194 c-28 -31 -31 -62 -10 -103 16 -32 33 -41 78 -41 79 1 111
87 55 148 -31 32 -91 30 -123 -4z m110 -9 c63 -63 -18 -160 -88 -105 -37 29
-37 80 -1 109 35 27 59 26 89 -4z"/>
<path d="M5116 6149 c-53 -41 -18 -129 51 -129 31 0 73 42 73 73 0 32 -43 77
-73 77 -13 0 -36 -9 -51 -21z"/>
<path d="M4743 6150 c-72 -29 -62 -131 14 -146 27 -5 37 -1 64 25 37 37 34 72
-7 109 -27 24 -37 26 -71 12z"/>
<path d="M6386 6130 c-61 -19 -99 -78 -95 -147 l3 -46 -64 -33 c-80 -41 -72
-45 10 -5 37 18 62 25 66 19 4 -6 2 -13 -3 -17 -9 -5 -57 -49 -256 -233 -28
-26 -43 -34 -48 -26 -5 8 -10 2 -14 -15 -5 -17 -14 -27 -26 -27 -12 0 -16 -5
-13 -14 4 -11 -1 -14 -20 -12 -16 2 -26 -2 -26 -10 0 -9 6 -11 18 -7 16 6 16
5 -1 -14 -15 -17 -29 -20 -124 -19 -80 1 -107 4 -111 15 -3 9 2 11 19 7 13 -3
18 -3 12 0 -21 9 -15 44 9 53 l22 8 -23 6 c-24 6 -24 31 0 33 8 1 19 2 25 3 6
0 17 12 24 26 9 17 19 24 29 20 13 -5 13 -4 4 6 -9 9 -17 8 -37 -5 -14 -9 -32
-16 -41 -16 -8 0 -15 -6 -15 -12 -1 -9 -5 -8 -13 2 -7 9 -31 25 -55 37 -33 16
-51 19 -78 13 -38 -9 -84 -45 -84 -67 0 -7 -4 -13 -9 -13 -6 0 -6 -12 0 -32
13 -48 12 -54 -17 -66 -14 -7 -23 -15 -21 -20 3 -4 -9 -7 -26 -8 -18 0 -89 -2
-159 -4 -70 -2 -124 -8 -121 -13 3 -4 12 -6 20 -3 13 6 13 3 -1 -19 -9 -13
-20 -42 -24 -62 -6 -33 -14 -41 -62 -65 -30 -15 -47 -27 -37 -27 10 -1 38 11
63 25 24 14 44 21 44 15 0 -6 20 -30 44 -53 24 -24 46 -52 49 -63 3 -11 5 -3
6 18 1 26 6 37 16 37 8 0 17 0 20 0 3 0 16 10 30 22 28 24 50 81 41 105 -4 8
-1 22 6 30 10 12 9 14 -7 11 -10 -1 -20 3 -22 9 -6 17 27 29 37 14 5 -10 16
-10 46 -2 43 12 94 15 94 5 0 -3 -44 -71 -97 -151 -54 -80 -111 -166 -128
-193 -22 -35 -36 -47 -55 -48 -14 0 -42 -8 -64 -17 -35 -15 -38 -15 -33 -1 4
10 1 16 -9 16 -8 0 -13 4 -9 10 3 5 -7 8 -25 7 -36 -2 -37 -5 -5 -17 31 -12
32 -36 3 -46 l-23 -7 22 -8 c19 -7 20 -12 13 -44 -5 -21 -4 -51 2 -71 9 -34 6
-41 -57 -135 -36 -54 -68 -99 -71 -99 -3 0 -3 17 0 38 5 35 5 35 -6 10 -10
-24 -16 -26 -62 -25 -60 1 -126 -31 -154 -74 l-17 -27 -175 63 c-252 91 -230
79 -232 122 0 21 -1 44 -1 50 1 7 -3 10 -8 7 -5 -3 -9 -1 -9 3 0 16 -58 43
-90 43 -65 0 -109 -43 -110 -107 0 -57 16 -89 54 -104 32 -14 80 -13 107 1 12
7 31 -6 77 -53 50 -50 59 -65 51 -79 -7 -12 -6 -25 1 -39 9 -16 17 -19 38 -14
25 6 40 -7 184 -157 129 -134 155 -165 143 -174 -18 -14 -19 -46 -3 -62 16
-16 34 -15 53 4 9 9 17 15 18 12 1 -2 44 -46 94 -98 l93 -95 -25 -49 c-62
-123 -2 -255 130 -287 28 -6 55 -13 60 -14 6 -1 41 -99 79 -216 38 -118 73
-223 77 -234 5 -11 20 -57 34 -103 l26 -83 -23 -19 c-13 -11 -26 -19 -30 -20
-4 0 -17 -19 -29 -42 -42 -81 -8 -192 71 -233 80 -41 186 -12 228 64 12 21 22
45 22 52 0 8 4 20 8 27 10 15 334 72 364 65 10 -3 24 -1 31 5 7 6 38 15 69 20
l55 9 19 -35 c41 -77 132 -114 223 -92 88 21 144 100 143 201 l-1 58 90 37
c49 20 87 39 85 41 -2 2 -36 -9 -76 -26 -88 -38 -117 -39 -131 -7 -10 22 -5
33 52 107 35 46 67 87 71 93 3 5 13 2 23 -8 21 -20 64 -18 78 5 14 23 1 67
-23 74 -18 6 -12 18 62 113 45 59 82 108 82 109 1 1 22 -3 48 -8 150 -32 277
126 208 260 -23 47 -73 90 -112 98 l-29 6 1 178 2 178 33 11 c39 13 95 72 95
100 0 10 4 21 9 24 15 10 -19 92 -53 127 -23 25 -42 35 -71 38 -22 1 -43 8
-47 14 -6 10 -18 88 -23 157 -2 19 -8 47 -13 61 -12 29 -8 38 30 62 40 25 62
64 60 105 -5 71 -50 120 -117 124 -19 2 -35 4 -35 6 0 1 -14 71 -30 154 -17
83 -29 152 -28 153 2 1 17 10 34 18 20 10 40 34 54 62 30 63 22 120 -25 168
-39 40 -77 52 -138 43 l-42 -6 -68 100 -68 101 25 30 c30 36 35 102 11 149
-30 58 -106 90 -169 70z m118 -31 c101 -80 52 -229 -75 -229 -40 0 -55 5 -83
31 -60 52 -61 126 -1 186 28 28 40 33 83 33 35 0 57 -6 76 -21z m-40 -277 c0
-12 2 -19 6 -17 4 2 19 -36 35 -85 24 -75 26 -91 15 -105 -11 -13 -11 -18 0
-28 10 -10 12 -9 7 5 -8 22 9 33 17 12 12 -32 7 -46 -15 -39 -16 6 -20 4 -13
-6 6 -12 5 -12 -8 -1 -11 9 -18 10 -23 2 -3 -5 -18 -10 -32 -10 l-25 0 6 93
c3 50 5 118 6 150 0 43 3 57 13 54 6 -2 12 -13 11 -25z m-812 -141 c27 -24 33
-36 33 -71 0 -100 -135 -136 -181 -49 -28 54 -14 107 34 133 42 23 78 19 114
-13z m1154 -28 c52 -34 71 -126 38 -183 -48 -80 -177 -82 -229 -3 -26 39 -25
115 1 151 45 60 128 76 190 35z m-529 -13 c45 -27 66 -64 66 -116 0 -53 -24
-91 -74 -117 -83 -44 -189 21 -189 116 0 106 109 171 197 117z m-255 -108
c-13 -4 -17 -32 -4 -32 4 0 13 5 19 11 16 16 36 1 30 -22 -3 -10 -2 -20 2 -22
3 -2 0 -2 -6 -1 -7 2 -13 -2 -13 -9 0 -17 -105 -71 -119 -63 -16 11 -13 26 4
20 14 -6 52 22 43 31 -6 6 -78 -28 -78 -36 0 -4 7 -10 16 -13 8 -3 13 -10 10
-15 -8 -13 -49 -7 -75 11 l-21 15 33 29 c18 17 40 28 52 26 16 -2 17 -1 6 7
-12 8 -12 12 -2 25 8 9 22 16 32 16 11 0 19 6 19 13 0 25 21 37 44 25 13 -7
16 -13 8 -16z m-352 -32 c0 9 3 10 13 1 8 -6 16 -8 19 -5 3 3 5 -3 5 -12 -1
-10 9 -23 21 -30 15 -7 20 -14 13 -19 -6 -3 -8 -11 -5 -17 4 -6 1 -9 -7 -6 -8
3 -19 15 -25 27 -14 27 -34 49 -34 36 0 -6 14 -30 30 -54 l30 -45 -27 -28
c-20 -21 -29 -25 -35 -16 -6 9 -8 7 -6 -7 2 -13 -4 -21 -17 -23 -17 -4 -18 -2
-6 12 16 19 3 21 -22 2 -16 -13 -16 -14 5 -19 21 -6 16 -13 -56 -82 -43 -41
-83 -72 -89 -68 -5 3 -7 1 -4 -4 8 -13 -3 -23 -80 -66 -38 -22 -65 -32 -69
-26 -3 6 -19 18 -35 28 -27 16 -28 19 -13 40 9 12 21 20 27 18 7 -2 17 3 24
12 11 14 12 14 13 -1 0 -10 -4 -19 -10 -19 -5 -1 -15 -2 -22 -3 -6 0 -13 -6
-15 -12 -6 -18 42 -4 54 16 12 19 7 60 -8 60 -13 0 1 29 44 93 41 60 46 63 78
46 17 -9 18 -13 7 -27 -7 -9 3 -4 22 12 29 23 78 94 68 97 -2 0 -16 2 -32 4
-39 5 -41 10 -19 47 22 37 61 48 86 24 9 -9 21 -16 28 -16 7 0 9 3 6 7 -4 3
-2 12 4 20 9 10 15 10 25 2 11 -9 14 -8 14 1z m-399 -15 c30 -16 49 -49 49
-86 0 -32 -53 -79 -90 -79 -68 0 -112 84 -74 138 28 41 69 50 115 27z m607
-125 c34 -21 62 -72 62 -113 0 -36 -40 -90 -84 -111 -32 -16 -44 -17 -75 -8
-48 15 -90 60 -97 103 -13 75 50 149 126 149 19 0 50 -9 68 -20z m707 -96 c23
-9 47 -61 39 -87 -12 -39 -35 -57 -75 -57 -70 0 -103 77 -54 125 24 24 57 31
90 19z m-827 -164 c1 -14 -3 -36 -10 -49 -17 -33 -115 -83 -138 -71 -9 5 -22
5 -30 0 -7 -4 -20 -6 -28 -2 -10 3 -13 1 -8 -6 8 -13 0 -14 -27 -4 -14 6 4 23
85 84 112 83 151 95 156 48z m-470 -37 c32 -20 55 -79 48 -123 -8 -52 -64
-100 -117 -100 -103 0 -162 101 -109 188 36 59 117 75 178 35z m1041 -11 c47
-35 66 -70 66 -125 0 -88 -63 -151 -152 -149 -155 2 -200 218 -59 283 48 23
107 19 145 -9z m588 -2 c42 -25 62 -85 43 -130 -19 -45 -56 -70 -105 -70 -52
0 -89 27 -105 75 -33 100 75 181 167 125z m-1167 -156 c135 -54 106 -248 -39
-262 -39 -3 -57 0 -84 17 -100 62 -82 217 29 251 42 12 49 12 94 -6z m-1503
-24 c87 -53 39 -190 -62 -177 -96 13 -117 139 -31 181 41 20 55 20 93 -4z
m1231 -53 c22 -9 28 -17 22 -26 -4 -8 -17 -12 -27 -9 -12 3 -20 0 -20 -8 0 -8
8 -14 18 -14 40 0 26 -19 -23 -34 -145 -41 -198 -54 -193 -46 3 5 1 11 -4 14
-5 4 -12 -2 -14 -11 -4 -14 -5 -13 -6 4 -1 17 11 30 50 52 29 16 60 28 70 26
10 -2 18 1 16 6 -1 8 40 38 79 58 1 1 15 -5 32 -12z m1235 -97 c16 0 117 -158
117 -182 0 -17 -2 -17 -23 -3 -34 22 -69 64 -62 75 4 6 -4 11 -17 11 -48 3
-53 5 -64 27 -6 13 -14 23 -18 22 -4 -1 -12 1 -19 3 -7 3 -4 6 6 6 10 1 16 5
13 10 -4 5 6 24 21 42 26 31 28 32 31 11 2 -12 9 -22 15 -22z m-2137 -83 c49
-19 97 -37 107 -40 12 -5 17 -17 17 -45 0 -58 19 -103 59 -140 34 -30 56 -38
124 -44 26 -3 31 -10 57 -87 27 -77 28 -85 13 -96 -21 -16 -11 -43 18 -47 19
-2 27 -17 48 -86 21 -71 22 -85 10 -96 -12 -12 -31 4 -129 108 -63 67 -189
199 -280 295 -91 95 -168 179 -172 186 -4 7 -44 47 -88 90 -128 125 -104 125
216 2z m382 36 c92 -68 97 -185 12 -256 -39 -33 -91 -43 -143 -27 -137 41
-153 229 -25 294 42 21 120 16 156 -11z m633 -16 c16 -12 15 -17 -18 -75 -33
-59 -37 -62 -73 -62 -33 0 -39 4 -48 29 -8 22 -15 28 -29 25 -12 -4 -26 5 -41
26 -26 34 -31 31 78 52 100 19 110 19 131 5z m-248 -48 c25 -11 47 -47 47 -75
0 -25 -47 -64 -76 -64 -77 0 -101 112 -31 140 30 12 32 12 60 -1z m1650 -73
c64 -27 100 -95 83 -160 -10 -40 -54 -85 -96 -97 -33 -10 -47 -9 -84 5 -109
42 -118 192 -14 248 40 21 69 22 111 4z m-566 -26 c86 -52 82 -189 -6 -235
-17 -8 -50 -15 -75 -15 -36 0 -52 6 -80 31 -67 58 -67 149 -1 208 29 25 44 31
83 31 29 0 59 -8 79 -20z m-1175 -37 c12 -11 33 -16 56 -15 100 6 181 6 187 0
15 -14 -16 -48 -44 -48 -29 0 -38 -23 -18 -48 21 -26 -4 -22 -107 18 -106 42
-106 42 -106 76 0 38 5 41 32 17z m328 -33 c0 -5 5 -10 11 -10 5 0 7 5 4 10
-4 6 5 10 20 10 23 0 25 -3 19 -27 -4 -16 -8 -30 -10 -32 -2 -2 1 -10 8 -18 9
-11 4 -22 -23 -51 -19 -20 -34 -38 -35 -39 -2 -6 -84 31 -84 38 0 4 17 35 38
68 35 57 52 74 52 51z m264 -129 c20 -60 36 -111 36 -114 0 -2 -12 -7 -27 -10
-31 -6 -83 10 -84 26 -1 7 -2 23 -2 37 -3 35 -50 36 -55 2 -3 -18 -8 -22 -20
-17 -9 4 -25 10 -34 12 -10 3 -18 8 -18 12 1 14 62 65 83 68 28 4 57 38 57 67
0 25 9 38 21 31 4 -3 23 -54 43 -114z m-816 37 c27 -29 64 -70 82 -91 l32 -37
-6 -88 c-8 -104 -15 -142 -26 -142 -4 0 -18 28 -30 63 -13 34 -43 114 -67 176
-72 187 -70 208 15 119z m261 -32 c34 -18 62 -36 62 -40 -3 -20 1 -26 14 -26
8 0 15 -3 15 -6 0 -10 -71 -133 -80 -139 -9 -6 -82 78 -90 103 -8 23 0 142 9
142 4 0 35 -15 70 -34z m339 -177 c9 -8 22 -14 27 -15 22 -3 55 -17 55 -24 0
-4 -62 -40 -139 -78 l-139 -71 -21 23 c-28 29 -27 44 4 56 14 5 25 14 25 20 0
7 25 38 56 70 54 57 56 58 85 46 17 -7 38 -19 47 -27z m348 10 c63 -39 83
-137 41 -200 -81 -122 -267 -68 -267 77 0 123 121 188 226 123z m665 -196 c60
-49 69 -67 47 -96 -12 -14 -19 -14 -83 11 -80 31 -92 53 -53 102 13 16 25 29
27 29 2 1 30 -20 62 -46z m-1440 15 c81 -27 129 -93 129 -178 0 -157 -182
-243 -301 -143 -64 54 -85 143 -50 218 23 50 58 83 108 100 47 18 71 18 114 3z
m887 -15 c9 -3 24 -7 32 -9 8 -1 33 -8 55 -15 22 -6 55 -16 73 -21 32 -10 32
-10 32 -75 l0 -66 -67 6 c-38 4 -88 7 -114 7 l-45 0 -23 70 c-21 68 -22 71 -4
94 17 23 23 24 61 9z m-316 -28 c28 -36 70 -55 119 -55 28 0 46 -6 55 -17 17
-23 18 -39 1 -24 -11 8 -17 5 -28 -15 l-14 -26 -120 7 c-66 3 -141 6 -167 5
-46 -1 -71 13 -43 24 19 7 19 33 0 43 -25 15 0 34 76 58 94 30 97 30 121 0z
m1231 -49 c67 -27 115 -115 102 -184 -22 -124 -163 -186 -266 -117 -73 48 -98
140 -58 222 38 79 138 115 222 79z m-1488 -131 c82 -7 106 -21 75 -42 -29 -21
-24 -67 8 -71 13 -2 32 4 41 12 17 15 22 13 70 -41 41 -47 48 -59 34 -61 -23
-5 -73 -52 -73 -69 0 -16 -16 -6 -143 86 -70 51 -85 66 -76 77 6 8 9 21 5 29
-7 19 -43 19 -53 0 -7 -13 -14 -10 -43 14 -32 26 -34 30 -22 55 11 25 15 26
59 22 27 -3 79 -8 118 -11z m413 -14 l74 -6 44 -108 c24 -59 44 -111 44 -115
-1 -4 -27 -36 -60 -71 -52 -58 -60 -63 -75 -51 -16 13 -15 14 4 22 24 8 28 40
7 57 -19 16 -46 3 -46 -23 0 -19 -4 -17 -31 14 -38 43 -157 175 -184 204 -57
62 -60 67 -45 76 16 11 153 11 268 1z m280 -10 c39 -1 72 -5 72 -10 0 -5 -32
-44 -72 -86 l-72 -77 -24 69 c-39 114 -39 115 -6 109 16 -2 62 -5 102 -5z
m231 -17 c2 -2 -1 -34 -7 -71 -6 -38 -17 -105 -23 -151 -9 -64 -16 -85 -31
-93 -18 -10 -18 -6 -13 148 4 87 8 164 11 171 3 11 49 8 63 -4z m181 -4 c0 -6
-18 -58 -41 -115 -34 -86 -46 -107 -73 -123 -18 -11 -45 -28 -61 -38 l-27 -18
6 45 c25 158 38 236 41 247 5 15 155 17 155 2z m-342 -239 c-24 -18 -23 -58 2
-71 33 -17 25 -55 -16 -79 l-35 -21 -13 33 c-8 17 -26 71 -41 119 l-28 87 69
76 69 76 5 -103 c5 -91 3 -105 -12 -117z m-792 48 c108 -77 222 -159 253 -182
31 -23 57 -42 59 -43 2 -1 -2 -12 -8 -24 -8 -14 -17 -19 -30 -15 -25 8 -47
-30 -29 -51 16 -20 35 -17 53 7 8 12 19 18 25 14 8 -4 -4 -25 -31 -57 -27 -32
-44 -46 -46 -37 -8 26 -33 39 -53 28 -26 -14 -25 -58 2 -67 19 -7 15 -14 -46
-80 -37 -40 -71 -72 -77 -72 -5 0 -6 5 -2 12 4 6 3 8 -4 5 -18 -12 -41 3 -34
21 5 15 3 15 -10 4 -9 -7 -33 -12 -54 -10 -37 3 -38 3 -61 78 -31 101 -30 116
4 115 29 0 40 19 24 44 -11 18 -51 5 -51 -17 0 -41 -30 34 -79 198 -29 96 -56
186 -60 200 -7 21 -3 29 23 47 17 12 32 22 33 23 1 0 90 -63 199 -141z m1302
87 c-2 -8 -49 -76 -106 -150 -98 -130 -103 -135 -127 -124 -14 6 -25 14 -25
18 0 4 15 40 32 80 32 72 35 75 123 132 95 61 108 67 103 44z m-995 -78 c52
-27 62 -83 22 -123 -46 -47 -118 -23 -131 42 -5 27 -1 37 24 63 33 32 51 36
85 18z m353 -150 c21 -57 37 -105 36 -108 -2 -3 -19 -14 -38 -25 l-35 -20 -59
60 c-33 33 -59 65 -60 71 0 12 98 124 110 124 4 0 24 -46 46 -102z m-188 -196
c17 -14 32 -27 32 -31 0 -9 -59 -41 -76 -41 -8 0 -25 -11 -37 -24 -36 -39
-280 -187 -291 -176 -6 6 13 33 50 73 57 62 60 63 77 45 21 -21 22 -21 48 -8
25 14 24 45 -1 63 -20 14 -18 17 46 85 l65 72 27 -17 c15 -10 42 -28 60 -41z
m140 -101 c52 -36 60 -46 52 -62 -6 -10 -10 -31 -10 -48 0 -18 -5 -31 -12 -31
-7 0 -89 -13 -183 -29 -93 -16 -188 -32 -210 -35 -22 -2 -59 -8 -82 -12 -75
-12 -51 16 87 104 115 72 133 80 150 69 27 -16 56 2 53 35 -1 19 7 30 35 46
20 11 41 18 47 14 6 -4 39 -27 73 -51z m315 35 c39 -16 82 -61 96 -99 30 -78
0 -178 -67 -222 -166 -109 -365 83 -260 252 43 71 151 103 231 69z m-875 -183
c48 -35 72 -81 72 -137 0 -161 -195 -216 -294 -83 -31 41 -29 130 2 175 50 70
157 92 220 45z"/>
<path d="M7992 6094 c-33 -23 -31 -88 3 -110 47 -31 105 3 105 61 0 37 -28 65
-65 65 -11 0 -31 -7 -43 -16z"/>
<path d="M7275 6065 c-14 -13 -25 -36 -25 -50 0 -33 41 -75 73 -75 34 0 66 29
73 67 5 26 1 37 -19 57 -33 33 -71 33 -102 1z"/>
<path d="M6870 6007 c-35 -18 -48 -61 -29 -95 25 -45 96 -43 117 3 16 35 15
49 -5 73 -24 27 -53 34 -83 19z"/>
<path d="M5865 5981 c-28 -12 -61 -51 -72 -86 -13 -40 19 -104 63 -125 17 -8
29 -21 27 -28 -7 -20 41 -4 106 35 40 24 63 32 81 28 17 -4 21 -3 11 4 -11 7
-3 14 32 30 56 25 64 38 10 15 -21 -9 -42 -17 -48 -18 -5 -1 -15 -5 -20 -8
-19 -12 -30 6 -31 50 -1 34 -7 50 -31 73 -32 33 -91 46 -128 30z m79 -11 c8 0
25 -12 40 -26 19 -20 26 -37 26 -66 0 -50 -13 -74 -50 -93 -74 -38 -150 9
-150 94 0 52 62 107 108 95 8 -2 19 -4 26 -4z"/>
<path d="M4903 5970 c-72 -29 -62 -127 16 -150 26 -7 35 -5 62 21 27 25 30 34
25 62 -11 54 -58 85 -103 67z"/>
<path d="M7710 5973 c-51 -19 -68 -85 -30 -123 45 -45 120 -11 120 53 0 47
-49 85 -90 70z"/>
<path d="M5393 5915 c-12 -9 -27 -32 -32 -52 -9 -33 -8 -39 17 -62 15 -14 26
-28 25 -32 -1 -3 17 -3 40 2 28 5 47 3 56 -4 11 -10 13 -8 7 10 -4 12 -2 24 4
28 17 11 11 71 -11 99 -24 30 -71 35 -106 11z"/>
<path d="M4510 5852 c-59 -60 -25 -152 57 -152 31 1 107 29 79 30 -4 0 -2 10
6 23 10 15 12 31 6 53 -10 40 -37 63 -81 71 -31 5 -40 1 -67 -25z m110 -12
c43 -43 12 -123 -49 -123 -42 0 -74 32 -74 74 0 61 80 92 123 49z"/>
<path d="M7146 5839 c-19 -15 -26 -30 -26 -54 0 -37 37 -75 72 -75 29 0 68 45
68 79 0 32 -38 71 -70 71 -10 0 -29 -9 -44 -21z"/>
<path d="M3935 5799 c-31 -27 -35 -37 -35 -79 0 -39 5 -54 29 -79 24 -26 37
-31 74 -31 86 0 136 74 104 153 -30 70 -113 88 -172 36z m110 7 c40 -17 55
-42 55 -90 0 -75 -82 -118 -147 -77 -60 38 -54 133 10 165 39 19 40 19 82 2z"/>
<path d="M5193 5775 c-72 -31 -52 -135 27 -135 37 0 65 34 66 80 0 33 -4 40
-31 53 -26 12 -36 13 -62 2z"/>
<path d="M7416 5629 c-33 -20 -66 -61 -68 -83 -6 -89 43 -146 128 -146 29 0
44 8 76 40 38 38 40 43 35 86 -7 63 -48 105 -108 110 -24 3 -53 -1 -63 -7z
m129 -41 c73 -86 -14 -208 -118 -164 -87 36 -83 171 5 194 49 12 86 3 113 -30z"/>
<path d="M7995 5580 c-32 -12 -47 -36 -47 -76 0 -48 28 -76 77 -76 44 0 72 23
81 69 5 27 1 37 -24 63 -31 31 -51 35 -87 20z"/>
<path d="M4244 5546 c-27 -27 -34 -42 -34 -74 0 -51 37 -99 85 -108 37 -7 100
17 109 42 3 9 10 13 15 10 5 -3 7 2 4 13 -2 10 2 25 10 32 8 8 10 17 5 24 -5
5 -18 25 -29 43 -37 62 -113 70 -165 18z m116 9 c16 -8 34 -24 40 -34 21 -40
7 -100 -29 -128 -27 -21 -87 -16 -118 11 -50 43 -32 130 32 157 30 12 43 11
75 -6z"/>
<path d="M4932 5558 c-12 -6 -25 -22 -28 -35 -4 -12 -11 -23 -18 -23 -8 0 -8
-3 0 -8 6 -4 13 -15 17 -25 4 -10 21 -24 39 -32 29 -11 36 -11 60 3 14 8 29
23 31 33 3 12 17 19 43 22 l39 4 -37 1 c-21 1 -38 7 -38 12 0 18 -48 60 -67
59 -10 0 -28 -5 -41 -11z"/>
<path d="M2670 5488 c-35 -57 -2 -118 64 -118 39 0 51 8 69 43 28 54 -9 107
-74 107 -34 0 -42 -5 -59 -32z"/>
<path d="M3745 5475 c-31 -30 -32 -66 -2 -99 49 -55 137 -25 137 48 0 69 -85
102 -135 51z"/>
<path d="M7092 5463 c-7 -3 -19 -18 -28 -34 -13 -27 -13 -33 2 -64 16 -35 25
-39 74 -37 30 2 60 35 60 69 0 47 -61 85 -108 66z"/>
<path d="M4780 5324 c-14 -9 -33 -27 -43 -40 -36 -49 6 -134 74 -149 30 -7 99
13 99 28 0 5 8 3 18 -4 14 -11 15 -11 5 1 -14 15 -18 44 -5 37 4 -3 7 10 7 29
0 19 -3 34 -6 34 -4 0 -9 10 -13 23 -5 23 -62 57 -94 57 -9 0 -28 -8 -42 -16z
m105 -29 c52 -51 16 -145 -55 -145 -22 0 -41 10 -62 30 -25 26 -29 36 -24 63
13 70 94 100 141 52z"/>
<path d="M7001 5234 c-29 -37 -26 -63 10 -100 l32 -33 37 19 c53 27 65 68 34
115 -24 36 -85 35 -113 -1z"/>
<path d="M10911 5204 c-31 -40 -28 -87 10 -118 17 -14 42 -26 56 -26 36 0 83
51 83 90 0 73 -104 111 -149 54z"/>
<path d="M10635 5185 c-54 -53 -16 -145 60 -145 61 0 99 61 75 119 -22 53 -95
67 -135 26z"/>
<path d="M4420 5183 c-48 -19 -65 -93 -30 -131 28 -30 62 -36 98 -18 90 46 27
186 -68 149z"/>
<path d="M7244 5109 c-38 -11 -52 -26 -60 -65 -14 -73 89 -117 135 -58 27 35
27 75 -1 101 -33 29 -40 31 -74 22z"/>
<path d="M11263 5070 c-50 -20 -62 -100 -19 -137 64 -55 159 -3 141 77 -12 55
-68 82 -122 60z"/>
<path d="M10369 4931 c-16 -16 -29 -39 -29 -51 0 -47 51 -100 96 -100 52 0
103 65 89 112 -22 72 -102 92 -156 39z m116 -6 c70 -69 -30 -170 -102 -103
-14 13 -23 33 -23 50 0 36 40 78 75 78 14 0 37 -11 50 -25z"/>
<path d="M10999 4891 c-31 -31 -36 -59 -17 -94 26 -50 86 -62 132 -26 20 16
26 29 26 60 0 83 -83 118 -141 60z"/>
<path d="M10693 4803 c-32 -6 -63 -50 -63 -88 0 -39 47 -85 85 -85 13 0 37 12
54 26 70 59 15 164 -76 147z"/>
<path d="M3435 4775 c-44 -43 -30 -114 25 -134 37 -12 72 -1 94 31 24 34 19
66 -13 99 -36 36 -73 37 -106 4z"/>
<path d="M11471 4786 c-26 -14 -50 -51 -51 -78 0 -25 46 -75 74 -80 66 -13
123 61 92 119 -14 28 -53 53 -79 53 -7 -1 -23 -7 -36 -14z"/>
<path d="M7227 4741 c3 -12 16 -28 29 -33 13 -6 24 -15 24 -20 0 -5 -3 -7 -8
-4 -16 9 -2 -90 16 -114 37 -50 117 -66 157 -32 55 46 68 98 40 152 -30 58
-127 78 -175 35 -22 -20 -39 -17 -67 15 l-22 24 6 -23z m198 -15 c39 -17 57
-45 57 -92 0 -73 -69 -118 -138 -89 -32 13 -64 58 -64 90 0 28 29 74 58 89 34
19 45 19 87 2z"/>
<path d="M9949 4731 c-21 -22 -29 -39 -29 -66 0 -44 45 -95 84 -95 59 0 106
46 106 105 0 40 -50 85 -95 85 -27 0 -44 -8 -66 -29z m100 4 c72 -37 48 -145
-33 -145 -87 0 -113 108 -36 147 32 16 35 16 69 -2z"/>
<path d="M8835 4701 c-49 -21 -73 -87 -49 -137 19 -40 73 -68 114 -59 71 16
105 115 57 170 -24 29 -86 42 -122 26z m90 -17 c25 -10 47 -62 40 -95 -8 -37
-49 -69 -87 -69 -35 0 -88 48 -88 80 0 26 25 77 42 83 19 8 74 8 93 1z"/>
<path d="M10970 4663 c-35 -13 -60 -47 -60 -82 0 -20 4 -41 8 -47 14 -20 57
-44 80 -44 34 0 82 52 82 89 0 52 -63 100 -110 84z"/>
<path d="M10465 4595 c-63 -62 -3 -166 82 -143 96 26 77 168 -22 168 -25 0
-44 -8 -60 -25z m119 -28 c16 -22 17 -30 7 -56 -26 -61 -106 -61 -132 0 -9 24
-9 33 5 54 33 50 83 51 120 2z"/>
<path d="M11140 4595 c-34 -37 -33 -90 4 -121 72 -63 176 19 132 104 -26 51
-96 59 -136 17z"/>
<path d="M3539 4507 c-66 -51 -41 -150 42 -163 82 -13 134 92 74 151 -27 28
-88 34 -116 12z m92 -10 c20 -15 39 -51 39 -72 0 -9 -11 -27 -25 -40 -49 -50
-125 -20 -125 49 0 57 68 96 111 63z"/>
<path d="M9432 4455 c-62 -52 -50 -129 23 -165 40 -19 46 -20 78 -7 45 19 67
52 67 100 0 84 -102 128 -168 72z m107 0 c82 -42 44 -165 -50 -165 -32 0 -79
53 -79 90 0 22 9 41 29 61 33 32 58 36 100 14z"/>
<path d="M10139 4435 c-14 -8 -32 -27 -38 -43 -38 -92 79 -164 150 -93 33 33
36 58 14 102 -25 47 -77 61 -126 34z m98 -27 c48 -45 16 -122 -52 -122 -27 0
-43 6 -56 23 -59 72 40 163 108 99z"/>
<path d="M10734 4410 c-12 -5 -29 -19 -38 -32 -62 -88 77 -186 144 -101 29 37
26 79 -9 114 -30 29 -58 35 -97 19z m86 -30 c65 -65 -30 -161 -97 -98 -46 43
-16 118 47 118 17 0 39 -9 50 -20z"/>
<path d="M2806 4369 c-52 -41 -25 -119 42 -119 66 0 94 69 47 115 -30 30 -54
31 -89 4z"/>
<path d="M11486 4319 c-14 -17 -26 -41 -26 -54 0 -13 12 -37 26 -54 53 -63
154 -28 154 54 0 82 -101 117 -154 54z m99 15 c8 -4 23 -20 31 -36 19 -37 5
-80 -32 -97 -35 -16 -48 -14 -78 10 -65 51 0 153 79 123z"/>
<path d="M10437 4262 c-57 -35 -49 -126 14 -152 89 -37 163 82 88 144 -35 30
-63 32 -102 8z m84 -13 c61 -32 31 -129 -41 -129 -26 0 -58 31 -66 62 -4 21 0
33 20 52 27 28 55 33 87 15z"/>
<path d="M11069 4221 c-16 -16 -29 -39 -29 -51 0 -78 90 -122 145 -70 32 30
39 64 20 100 -30 58 -90 67 -136 21z"/>
<path d="M4515 4215 c-14 -13 -25 -36 -25 -50 0 -29 40 -75 66 -75 25 0 72 32
78 53 7 27 -9 62 -36 81 -32 22 -55 20 -83 -9z"/>
<path d="M9875 4095 c-54 -54 -14 -145 65 -145 43 0 76 30 86 78 5 26 1 36
-24 62 -39 39 -92 41 -127 5z m118 -17 c30 -36 20 -81 -24 -103 -74 -39 -138
63 -72 115 32 25 69 20 96 -12z"/>
<path d="M10685 4037 c-20 -20 -32 -41 -30 -53 2 -10 4 -25 4 -32 2 -27 49
-62 85 -62 112 0 120 152 8 175 -28 6 -37 2 -67 -28z m110 -12 c39 -38 28 -93
-22 -114 -52 -21 -103 16 -103 75 0 24 47 64 75 64 14 0 37 -11 50 -25z"/>
<path d="M9073 4020 c-42 -28 -58 -79 -39 -125 19 -44 52 -65 104 -65 35 0 49
6 73 29 88 89 -33 230 -138 161z m125 -22 c11 -13 23 -35 27 -49 8 -31 -16
-83 -44 -99 -56 -30 -127 7 -137 71 -5 28 -1 41 21 67 22 27 34 32 69 32 31 0
48 -6 64 -22z"/>
<path d="M10260 4003 c-62 -23 -80 -98 -35 -147 44 -48 133 -24 149 40 17 66
-52 130 -114 107z m75 -38 c40 -39 29 -95 -22 -113 -78 -27 -136 76 -70 123
31 22 65 18 92 -10z"/>
<path d="M11483 3968 c-53 -57 -16 -148 60 -148 76 0 115 93 62 145 -32 33
-93 34 -122 3z m91 1 c54 -25 55 -90 1 -125 -21 -14 -30 -14 -54 -5 -28 12
-51 47 -51 77 0 19 45 64 64 64 8 0 26 -5 40 -11z"/>
<path d="M3285 3971 c-69 -21 -95 -88 -59 -149 15 -27 14 -30 -77 -183 l-92
-156 -41 4 c-50 5 -83 -12 -114 -57 -18 -27 -22 -43 -18 -70 4 -19 7 -43 8
-52 1 -10 6 -18 11 -18 5 0 20 -9 34 -20 32 -25 94 -26 134 -3 57 34 75 127
34 174 -23 24 -17 40 79 201 l81 137 43 1 c36 0 49 6 74 32 26 28 29 38 25 72
-9 62 -67 104 -122 87z m80 -36 c37 -36 34 -86 -6 -119 -17 -14 -37 -26 -45
-26 -31 0 -72 30 -83 60 -28 82 73 147 134 85z m-282 -495 c62 -69 15 -180
-78 -180 -60 0 -104 45 -105 106 0 103 115 149 183 74z"/>
<path d="M11112 3877 c-27 -29 -29 -86 -4 -116 9 -12 34 -24 54 -28 32 -5 41
-1 68 25 38 39 40 83 5 117 -33 34 -93 34 -123 2z"/>
<path d="M10496 3769 c-30 -35 -33 -69 -10 -104 35 -53 120 -50 149 6 22 41
18 73 -11 103 -39 38 -93 36 -128 -5z m117 -6 c40 -36 4 -123 -52 -123 -36 0
-71 37 -71 76 0 64 73 91 123 47z"/>
<path d="M11365 3695 c-54 -53 -16 -145 60 -145 79 0 112 84 56 141 -38 37
-82 39 -116 4z m108 -12 c33 -38 22 -94 -23 -113 -39 -16 -76 -1 -90 36 -13
34 -13 37 11 68 24 31 77 36 102 9z"/>
<path d="M7890 3673 c-25 -22 -31 -37 -33 -70 -1 -42 -2 -43 -57 -62 -30 -11
-133 -52 -229 -90 -157 -64 -176 -69 -191 -56 -39 36 -120 0 -120 -53 0 -11
-8 -26 -17 -32 -17 -11 -17 -11 0 -6 11 4 29 -2 44 -14 14 -11 33 -20 43 -20
27 0 70 39 70 63 0 19 28 33 232 113 l233 92 33 -29 c85 -75 212 19 168 125
-29 69 -120 89 -176 39z m120 2 c34 -18 50 -43 50 -79 0 -91 -103 -133 -162
-66 -43 47 -32 116 23 146 32 18 54 17 89 -1z"/>
<path d="M10859 3671 c-17 -18 -29 -40 -29 -56 0 -37 50 -85 89 -85 45 0 85
39 85 83 0 81 -87 116 -145 58z"/>
<path d="M9499 3662 c-74 -66 -12 -186 87 -168 63 12 97 80 69 139 -29 62
-103 76 -156 29z m120 -8 c59 -50 28 -144 -48 -144 -48 0 -79 23 -87 65 -10
54 30 102 88 104 9 1 30 -11 47 -25z"/>
<path d="M10326 3510 c-45 -14 -66 -39 -66 -80 0 -73 67 -118 129 -86 71 37
68 127 -6 165 -12 6 -23 11 -25 10 -2 0 -16 -5 -32 -9z m71 -32 c29 -33 33
-50 18 -86 -24 -55 -106 -55 -133 1 -35 72 62 143 115 85z"/>
<path d="M10631 3494 c-42 -35 -43 -84 -2 -125 45 -44 107 -35 136 22 20 38
13 72 -20 105 -32 32 -75 31 -114 -2z m109 -16 c60 -65 -31 -156 -101 -100
-28 23 -30 73 -4 102 25 27 78 27 105 -2z"/>
<path d="M11105 3467 c-59 -51 -19 -151 61 -151 46 0 84 40 84 87 -1 75 -88
114 -145 64z m115 -25 c11 -13 20 -33 20 -44 0 -27 -45 -68 -75 -68 -32 0 -75
41 -75 72 1 29 20 55 51 66 32 12 56 4 79 -26z"/>
<path d="M4595 3448 c-54 -47 -21 -138 50 -138 54 0 98 67 74 112 -28 52 -81
63 -124 26z"/>
<path d="M1646 3279 c-52 -41 -21 -119 47 -119 37 0 62 21 72 60 5 19 0 33
-19 53 -30 32 -64 34 -100 6z"/>
<path d="M3984 3286 c-77 -34 -98 -118 -44 -180 41 -46 87 -54 140 -25 46 26
65 65 57 115 -7 44 -31 72 -74 90 -39 17 -40 17 -79 0z m95 -22 c13 -9 29 -31
36 -48 36 -85 -52 -164 -139 -125 -33 15 -59 71 -51 109 14 65 101 101 154 64z"/>
<path d="M3325 3130 c-65 -68 -17 -170 79 -170 37 0 48 5 70 31 59 70 15 169
-76 169 -36 0 -50 -6 -73 -30z m132 -4 c39 -34 39 -98 0 -132 -37 -31 -78 -31
-116 2 -24 20 -31 34 -31 62 1 81 86 120 147 68z"/>
<path d="M2410 3070 c-24 -24 -26 -67 -4 -98 23 -33 86 -31 113 4 12 15 21 34
21 44 0 10 -9 29 -21 44 -26 33 -79 36 -109 6z"/>
<path d="M2034 2780 c-85 -34 -60 -170 31 -170 92 0 127 123 46 165 -33 17
-46 18 -77 5z m83 -32 c42 -40 21 -109 -38 -123 -38 -9 -82 31 -82 75 0 63 73
92 120 48z"/>
<path d="M3724 2737 c-81 -74 -41 -206 66 -218 42 -4 71 3 99 27 93 78 38 224
-86 224 -35 0 -50 -6 -79 -33z m136 8 c42 -21 60 -53 60 -103 0 -37 -6 -50
-34 -78 -39 -39 -86 -45 -137 -18 -29 15 -59 65 -59 100 0 33 32 83 63 98 40
20 70 20 107 1z"/>
<path d="M6520 2745 c0 -8 -7 -15 -15 -15 -15 0 -25 -6 -59 -37 -8 -7 -16 -10
-19 -7 -3 4 -11 2 -19 -2 -7 -4 -31 -9 -53 -10 -56 -3 -55 -3 -55 -18 0 -17
24 -38 34 -29 3 4 26 8 50 9 24 2 60 12 80 23 40 23 56 26 56 11 0 -5 -9 -10
-20 -10 -11 0 -20 -6 -20 -14 0 -8 -10 -16 -22 -18 -13 -2 -24 -11 -26 -21 -5
-24 28 -35 43 -14 7 10 19 17 28 17 9 0 20 6 24 13 4 8 16 16 26 20 9 3 17 13
17 21 0 7 9 16 20 19 31 8 27 47 -5 47 -16 0 -25 6 -25 15 0 8 -9 15 -20 15
-11 0 -20 -7 -20 -15z"/>
<path d="M7863 2690 c-19 -11 -35 -31 -39 -47 -3 -15 -7 -32 -9 -38 -4 -16 23
-63 47 -79 28 -20 87 -21 114 -1 55 38 56 132 1 165 -41 25 -73 25 -114 0z
m91 -4 c74 -31 63 -141 -17 -160 -31 -8 -42 -6 -64 10 -56 42 -50 123 11 150
38 16 31 16 70 0z"/>
<path d="M5475 2215 c-46 -45 -19 -115 45 -115 63 0 93 75 47 118 -30 29 -62
28 -92 -3z"/>
<path d="M2380 2217 c-32 -16 -51 -71 -38 -110 21 -60 107 -71 148 -20 56 72
-29 173 -110 130z m90 -27 c43 -43 10 -120 -51 -120 -30 0 -69 40 -69 70 0 10
9 29 21 44 25 32 70 35 99 6z"/>
</g>
</svg>
