<?xml version="1.0" standalone="no"?>
<!DOCTYPE svg PUBLIC "-//W3C//DTD SVG 20010904//EN"
 "http://www.w3.org/TR/2001/REC-SVG-20010904/DTD/svg10.dtd">
<svg version="1.0" xmlns="http://www.w3.org/2000/svg"
 width="600.000000pt" height="600.000000pt" viewBox="0 0 600.000000 600.000000"
 preserveAspectRatio="xMidYMid meet">
<metadata>
Created by potrace 1.13, written by Peter Selinger 2001-2015
</metadata>
<g transform="translate(0.000000,600.000000) scale(0.100000,-0.100000)"
fill="#000000" stroke="none">
<path d="M2898 5400 c-78 -12 -188 -52 -256 -92 -32 -18 -98 -73 -147 -123
-100 -99 -154 -189 -197 -325 l-23 -75 0 -1155 c0 -1297 -5 -1203 75 -1365 93
-187 247 -321 445 -387 60 -20 90 -23 205 -23 115 0 145 3 205 23 255 85 443
292 505 554 20 85 20 107 18 1225 l-3 1138 -23 70 c-89 263 -285 456 -529 519
-76 20 -203 27 -275 16z"/>
<path d="M1800 2868 c0 -401 18 -547 84 -717 150 -379 512 -671 912 -733 l74
-12 0 -323 0 -323 -345 0 -345 0 0 -125 0 -125 823 2 822 3 0 120 0 120 -352
3 -353 2 0 324 0 323 53 7 c440 57 826 373 970 796 49 143 57 226 57 588 l0
332 -119 0 -119 0 -4 -352 c-4 -325 -6 -359 -26 -433 -160 -583 -813 -869
-1366 -598 -232 113 -405 318 -483 570 -27 88 -27 89 -31 451 l-3 362 -125 0
-124 0 0 -262z"/>
</g>
</svg>
