<?xml version="1.0" standalone="no"?>
<!DOCTYPE svg PUBLIC "-//W3C//DTD SVG 20010904//EN"
 "http://www.w3.org/TR/2001/REC-SVG-20010904/DTD/svg10.dtd">
<svg version="1.0" xmlns="http://www.w3.org/2000/svg"
 width="224.000000pt" height="225.000000pt" viewBox="0 0 224.000000 225.000000"
 preserveAspectRatio="xMidYMid meet">
<metadata>
Created by potrace 1.13, written by Peter Selinger 2001-2015
</metadata>
<g transform="translate(0.000000,225.000000) scale(0.100000,-0.100000)"
fill="#000000" stroke="none">
<path d="M237 2243 c-4 -3 -7 -19 -7 -34 0 -21 15 -44 58 -87 214 -220 409
-492 469 -659 30 -83 93 -183 138 -217 33 -26 53 -66 32 -66 -28 0 -116 62
-167 116 -69 74 -211 248 -227 278 -7 13 -24 31 -37 40 -14 9 -35 34 -46 56
-11 22 -34 49 -50 62 -17 12 -30 25 -30 30 0 4 -37 53 -82 108 -46 56 -107
131 -136 168 -54 68 -93 95 -112 76 -17 -17 10 -74 72 -149 32 -38 68 -83 80
-98 13 -15 39 -47 59 -70 20 -23 64 -79 98 -124 34 -46 68 -86 76 -90 7 -5 23
-26 36 -48 23 -39 159 -211 199 -250 71 -71 101 -94 136 -105 76 -25 82 -42
19 -60 -33 -9 -87 -11 -202 -5 -147 6 -162 5 -215 -15 -32 -12 -99 -52 -150
-89 -51 -37 -122 -87 -158 -112 -74 -51 -101 -89 -84 -116 7 -11 23 -17 42
-17 32 2 146 73 155 99 4 8 11 15 18 15 6 0 34 20 63 45 29 24 78 56 109 71
49 22 68 25 144 23 88 -2 243 12 337 31 27 6 51 8 54 6 2 -3 2 -16 -2 -30 -5
-20 -16 -28 -52 -37 -45 -12 -164 -83 -164 -99 0 -6 -158 -184 -199 -223 -59
-57 -112 -119 -127 -150 -9 -17 -34 -55 -55 -83 -21 -27 -46 -68 -55 -90 -9
-21 -26 -50 -39 -64 -12 -14 -41 -61 -65 -106 -33 -62 -42 -87 -36 -107 5 -20
13 -27 30 -27 32 0 53 27 102 132 23 51 63 118 88 148 60 73 152 192 201 260
21 30 79 96 129 147 49 51 95 105 102 121 15 36 34 50 34 25 0 -10 -7 -43 -15
-73 -41 -151 18 -402 117 -497 68 -65 190 -94 256 -59 107 56 207 250 223 431
4 55 8 106 9 113 0 26 33 10 88 -46 31 -31 71 -79 87 -107 41 -67 93 -144 135
-199 19 -25 45 -65 57 -88 52 -102 123 -262 123 -278 0 -24 45 -70 68 -70 23
0 52 30 52 55 0 10 -20 55 -44 99 -24 45 -58 115 -76 156 -18 41 -45 93 -60
115 -15 22 -41 67 -58 100 -16 33 -40 69 -52 80 -12 11 -30 36 -41 56 -22 45
-71 102 -171 201 -76 76 -85 81 -179 102 -31 7 -46 44 -22 53 9 3 36 1 62 -5
59 -15 139 -16 219 -4 77 12 108 4 187 -44 33 -21 85 -51 115 -68 30 -16 90
-57 133 -89 80 -60 115 -76 155 -69 17 3 22 10 22 36 0 45 -20 60 -205 156
-88 46 -165 88 -170 95 -11 14 -58 43 -113 72 -31 16 -39 16 -135 0 -178 -30
-223 -32 -253 -12 -31 20 -27 25 51 55 169 65 187 83 370 345 76 108 119 159
176 209 42 35 92 84 110 107 19 23 67 77 107 121 95 104 116 158 62 158 -32 0
-58 -17 -75 -49 -8 -16 -52 -66 -97 -111 -46 -45 -93 -92 -104 -104 -54 -53
-209 -235 -232 -271 -14 -22 -40 -56 -58 -75 -17 -19 -38 -47 -45 -62 -22 -41
-123 -143 -173 -172 -45 -26 -96 -35 -96 -15 0 5 13 22 29 37 15 15 42 54 58
87 82 163 133 271 133 278 0 5 20 34 43 65 24 31 56 77 71 101 15 24 62 87
104 140 95 118 192 255 192 270 0 6 -15 11 -34 11 -40 0 -68 -28 -173 -175
-39 -55 -83 -111 -98 -125 -15 -14 -35 -41 -46 -62 -10 -20 -22 -38 -27 -40
-16 -6 -104 -150 -139 -228 -65 -142 -71 -153 -148 -278 -11 -17 -26 -32 -34
-32 -14 0 -14 -1 14 130 l17 76 -33 93 c-18 52 -42 105 -54 119 -51 59 -77
-22 -30 -93 41 -60 68 -199 45 -235 -14 -22 -43 -1 -54 39 -7 25 -14 31 -35
31 -35 0 -69 -25 -73 -52 -4 -27 -37 -36 -53 -15 -21 30 -9 143 24 214 35 73
38 95 16 113 -41 34 -87 -56 -105 -206 -10 -87 -10 -105 4 -138 20 -48 20 -66
0 -66 -17 0 -64 95 -135 270 -48 120 -109 216 -203 318 -36 39 -76 88 -90 109
-13 21 -42 56 -65 78 -23 21 -41 44 -41 51 0 18 -89 113 -121 129 -31 17 -42
18 -52 8z"/>
</g>
</svg>
