<?xml version="1.0" standalone="no"?>
<!DOCTYPE svg PUBLIC "-//W3C//DTD SVG 20010904//EN"
 "http://www.w3.org/TR/2001/REC-SVG-20010904/DTD/svg10.dtd">
<svg version="1.0" xmlns="http://www.w3.org/2000/svg"
 width="225.000000pt" height="225.000000pt" viewBox="0 0 225.000000 225.000000"
 preserveAspectRatio="xMidYMid meet">
<metadata>
Created by potrace 1.13, written by Peter Selinger 2001-2015
</metadata>
<g transform="translate(0.000000,225.000000) scale(0.100000,-0.100000)"
fill="#000000" stroke="none">
<path d="M793 2103 c-7 -2 -13 -11 -13 -19 0 -11 -5 -12 -17 -6 -20 10 -43 5
-43 -9 0 -5 8 -9 17 -9 16 0 10 -14 -8 -16 -5 -1 -13 -2 -18 -3 -10 -1 -26
-60 -18 -67 3 -3 44 5 92 18 87 22 87 22 81 51 -3 16 -6 38 -6 48 0 14 -7 19
-27 18 -16 0 -34 -3 -40 -6z"/>
<path d="M1553 1959 c29 -17 19 -30 -13 -14 -16 8 -37 15 -47 14 -10 0 -13 -3
-5 -6 26 -10 11 -25 -19 -19 -17 3 -29 2 -27 -2 2 -5 21 -46 43 -91 l39 -83
106 7 c58 4 107 9 110 12 6 5 -46 106 -72 139 -11 13 -27 24 -36 24 -9 0 -26
7 -36 15 -11 8 -29 15 -40 15 -19 -1 -19 -2 -3 -11z"/>
<path d="M1260 1872 c-15 -1 -34 -16 -45 -32 -23 -34 -72 -73 -92 -73 -8 0
-11 -9 -6 -26 9 -40 16 -43 79 -32 33 6 77 13 99 17 22 4 43 7 48 6 12 -3 8
20 -11 71 -22 58 -39 74 -72 69z"/>
<path d="M428 1723 c-102 -41 -107 -48 -115 -185 -6 -92 -4 -96 38 -77 13 6
58 25 99 43 l75 31 1 108 c0 59 -2 110 -5 111 -3 2 -45 -12 -93 -31z"/>
<path d="M900 1450 c-142 -38 -182 -52 -187 -67 -6 -16 35 -243 48 -265 7 -10
35 -6 145 22 75 19 139 40 141 47 8 21 -58 283 -70 282 -7 0 -41 -9 -77 -19z"/>
<path d="M42 1418 c-25 -101 -32 -139 -38 -229 -22 -307 99 -625 321 -842 95
-94 110 -107 118 -107 4 0 21 -12 38 -28 60 -53 186 -111 211 -96 7 5 4 10
-12 16 -12 5 -20 11 -17 14 3 3 27 -2 54 -12 41 -15 89 -17 341 -18 223 0 295
3 301 12 4 7 31 15 60 19 28 3 54 10 57 14 3 5 14 9 25 9 10 0 19 4 19 10 0 6
-10 6 -27 -1 -16 -6 -107 -11 -203 -12 -176 -2 -314 3 -292 11 14 4 16 32 2
32 -5 0 -7 7 -4 15 11 28 -65 125 -97 125 -10 0 -25 13 -35 29 -16 26 -21 28
-80 29 -35 0 -64 -4 -64 -9 0 -4 10 -18 23 -29 16 -16 17 -19 5 -15 -10 4 -18
3 -18 -3 0 -6 12 -14 26 -19 l26 -9 -32 -31 c-20 -20 -38 -29 -48 -26 -13 6
-13 7 -1 12 8 3 15 11 16 18 2 9 -4 10 -20 4 -13 -5 -29 -6 -36 -1 -11 6 -11
9 0 13 8 2 2 8 -14 12 -16 4 -40 19 -54 33 -25 25 -27 25 -35 7 -5 -14 -6 -10
-2 12 l5 32 -43 -4 c-25 -2 -37 -1 -29 4 9 6 10 13 3 27 -6 11 -16 46 -23 79
-7 33 -23 74 -34 91 -12 17 -34 57 -50 88 -28 56 -38 65 -50 46 -3 -5 -15 -10
-26 -10 -11 0 -17 -4 -14 -10 13 -21 -51 -10 -65 11 -8 11 -25 35 -38 52 -19
27 -20 32 -7 40 8 4 15 14 15 22 0 8 9 19 20 25 11 6 20 16 20 22 0 6 8 16 17
23 16 12 16 16 0 71 -9 33 -24 92 -32 133 -8 41 -17 76 -20 79 -8 8 -82 -29
-102 -50 -13 -15 -17 -36 -16 -99 1 -57 -2 -79 -10 -76 -7 2 -11 18 -11 36 1
17 -2 29 -6 26 -4 -3 -11 3 -15 12 -3 10 -2 19 3 21 6 2 3 16 -5 33 -15 29
-21 198 -8 218 2 5 7 26 10 47 3 22 8 51 11 67 9 43 -2 31 -14 -15z"/>
<path d="M1148 1302 c-79 -48 -47 -131 70 -182 13 -5 52 -24 88 -41 52 -25 73
-31 109 -26 25 2 45 3 45 2 0 -2 -26 -11 -57 -21 -32 -9 -62 -22 -68 -27 -7
-7 -4 -8 8 -4 9 4 17 3 17 -2 0 -5 -12 -12 -27 -16 -19 -4 -23 -9 -14 -14 11
-7 11 -10 0 -15 -8 -3 -2 -4 14 -2 17 2 27 -1 27 -10 0 -7 3 -19 6 -28 5 -12
-4 -17 -35 -22 -60 -10 -66 -29 -8 -21 43 6 47 5 47 -14 0 -20 -12 -28 -47
-33 -28 -4 -29 -36 -1 -37 17 -1 18 -3 6 -6 -17 -4 -26 -23 -10 -23 27 1 51
15 55 34 3 17 5 15 6 -6 1 -37 21 -36 21 1 0 30 14 41 56 41 19 0 24 -5 24
-26 0 -14 4 -23 10 -19 6 3 7 17 4 29 -5 21 -1 24 30 30 20 4 36 12 36 17 0 7
-12 8 -31 4 -22 -5 -34 -3 -40 6 -17 26 -9 37 31 44 51 9 53 25 1 18 -30 -4
-39 -2 -45 12 -9 24 -1 32 39 39 30 6 35 11 35 35 0 16 -6 34 -14 40 -13 11
-12 15 4 31 21 21 17 68 -8 88 -9 6 -35 12 -59 12 -32 0 -71 15 -169 65 -70
36 -128 65 -128 64 -1 0 -13 -8 -28 -17z"/>
<path d="M455 1264 c-49 -13 -98 -21 -107 -18 -22 6 -23 -4 -4 -25 10 -11 16
-48 19 -115 3 -54 9 -102 15 -108 15 -15 32 -1 32 26 0 18 10 27 42 40 42 16
43 16 60 -6 18 -24 20 -22 32 34 9 38 -5 41 -71 18 -65 -23 -73 -24 -73 -10 0
6 7 10 15 10 8 0 23 4 33 9 9 5 34 16 55 25 22 9 41 26 47 42 12 30 13 104 3
103 -5 0 -48 -12 -98 -25z"/>
<path d="M2075 1131 c-27 -6 -28 -8 -9 -14 17 -6 44 -44 44 -63 0 -3 -15 -3
-33 0 -18 3 -38 1 -46 -3 -8 -5 -19 -44 -26 -92 -11 -70 -10 -88 1 -106 12
-19 18 -20 46 -12 40 11 92 59 65 59 -23 0 -22 25 3 50 18 18 20 31 18 103 -3
89 -5 91 -63 78z"/>
<path d="M2223 1099 c-7 -7 -13 -31 -14 -53 -1 -35 -2 -37 -8 -16 -6 18 -10 2
-16 -60 -5 -47 -7 -98 -6 -114 4 -45 -22 -148 -39 -154 -22 -8 -36 -25 -44
-50 -4 -12 -12 -22 -17 -22 -5 0 -9 -7 -9 -15 0 -19 -59 -115 -71 -115 -5 0
-8 -3 -7 -7 4 -15 -32 -60 -58 -72 -21 -9 -16 0 25 46 73 82 115 207 73 221
-11 3 -76 -56 -107 -99 -19 -26 -65 -136 -65 -156 0 -10 5 -24 10 -29 14 -14
2 -44 -16 -44 -8 0 -14 -4 -14 -9 0 -5 -10 -11 -22 -15 -29 -7 -54 -44 -39
-59 7 -7 19 -4 38 9 15 10 30 19 33 19 25 4 49 18 44 26 -3 6 3 13 15 16 11 3
19 9 16 13 -3 4 2 11 11 14 10 4 13 2 8 -7 -3 -6 10 6 30 28 117 127 217 332
252 516 18 95 16 207 -3 188z"/>
<path d="M939 929 l-106 -30 11 -40 c9 -34 14 -39 31 -34 11 3 72 19 135 36
63 17 115 31 116 32 0 1 -3 17 -8 35 -7 28 -13 32 -41 31 -18 0 -80 -14 -138
-30z"/>
<path d="M615 849 c-16 -5 -54 -17 -82 -26 -29 -9 -53 -20 -53 -25 0 -12 7
-11 94 17 43 14 83 25 88 25 9 0 19 -23 32 -70 l7 -25 -21 27 c-20 26 -22 27
-46 12 -15 -10 -33 -14 -49 -10 -19 5 -25 2 -25 -10 0 -12 -6 -14 -30 -9 -23
5 -30 3 -30 -8 0 -9 6 -22 13 -29 10 -11 24 -46 55 -138 2 -8 -10 7 -27 33
-17 26 -31 51 -31 56 0 5 -7 14 -15 21 -24 20 -18 -4 21 -80 48 -95 76 -108
161 -72 46 18 61 49 20 38 -19 -4 -29 2 -55 40 -18 24 -32 48 -32 53 0 13 -36
42 -44 34 -4 -4 -4 0 0 10 11 29 31 19 48 -23 9 -23 22 -43 29 -46 16 -6 69
13 78 28 4 7 14 -4 23 -25 8 -20 20 -37 25 -37 16 0 15 6 -38 130 -53 122 -58
128 -116 109z"/>
<path d="M1766 641 l-79 -16 -23 -90 c-35 -133 -36 -143 -14 -155 14 -7 26 -8
39 0 11 5 31 10 45 10 14 0 26 5 26 10 0 6 7 10 15 10 22 0 95 180 95 232 0
21 0 21 -104 -1z"/>
<path d="M1427 566 c-35 -33 -44 -86 -21 -125 10 -17 21 -31 25 -31 4 0 12
-14 18 -31 11 -33 31 -31 31 4 0 12 11 45 25 72 31 63 32 99 3 119 -31 22 -51
20 -81 -8z"/>
<path d="M1054 492 c-19 -13 -44 -56 -44 -75 0 -36 30 -82 62 -96 17 -8 59
-15 92 -17 34 -1 72 -4 86 -6 21 -2 25 1 25 22 0 19 -9 30 -37 45 -27 14 -38
28 -43 52 -11 58 -98 105 -141 75z"/>
</g>
</svg>
