<?xml version="1.0" standalone="no"?>
<!DOCTYPE svg PUBLIC "-//W3C//DTD SVG 20010904//EN"
 "http://www.w3.org/TR/2001/REC-SVG-20010904/DTD/svg10.dtd">
<svg version="1.0" xmlns="http://www.w3.org/2000/svg"
 width="225.000000pt" height="225.000000pt" viewBox="0 0 225.000000 225.000000"
 preserveAspectRatio="xMidYMid meet">
<metadata>
Created by potrace 1.13, written by Peter Selinger 2001-2015
</metadata>
<g transform="translate(0.000000,225.000000) scale(0.100000,-0.100000)"
fill="#000000" stroke="none">
<path d="M1025 1869 c-246 -36 -451 -181 -565 -400 -98 -189 -113 -402 -39
-602 118 -324 454 -531 792 -488 282 36 515 219 614 482 170 453 -127 946
-610 1009 -84 11 -110 11 -192 -1z m-60 -89 c3 -5 18 -7 34 -4 23 5 32 1 48
-23 11 -15 26 -45 32 -65 7 -21 17 -40 22 -44 6 -3 3 -11 -6 -18 -13 -10 -14
-17 -5 -41 25 -67 67 -84 96 -40 10 15 49 41 90 60 68 32 75 38 100 90 15 30
32 55 38 55 30 0 146 -83 209 -150 82 -85 144 -189 125 -208 -17 -17 -26 -15
-60 9 l-30 21 -36 -35 c-22 -21 -49 -37 -67 -39 -26 -3 -30 -7 -27 -29 3 -22
-2 -29 -26 -37 -34 -12 -50 -46 -31 -68 15 -18 39 -11 105 33 55 36 74 36 94
-3 16 -30 28 -31 39 -2 8 21 8 21 31 -10 22 -30 25 -31 42 -15 23 21 27 17 34
-39 l6 -45 -52 -13 -52 -12 -46 45 -47 46 -70 -10 c-64 -10 -73 -15 -108 -52
-20 -23 -46 -58 -57 -78 l-19 -37 25 -50 c20 -40 33 -54 66 -67 24 -9 52 -13
69 -10 66 15 74 -2 84 -177 l4 -77 -49 -44 c-60 -54 -183 -119 -270 -143 -85
-23 -262 -24 -343 -2 -33 9 -62 20 -65 23 -4 4 11 21 33 38 22 18 46 40 55 50
35 40 87 89 111 104 33 20 89 111 92 148 2 25 -2 29 -65 48 -38 11 -68 26 -68
32 0 14 -66 77 -98 94 -11 6 -53 14 -94 17 -71 7 -74 9 -113 51 -22 25 -52 51
-66 59 -30 15 -43 48 -25 63 6 6 31 11 55 12 34 3 47 -1 61 -19 19 -23 30 -19
30 10 0 31 46 94 79 108 17 7 31 17 31 22 0 5 14 14 31 20 23 8 29 15 26 30
-5 17 -2 19 20 14 13 -4 33 -4 44 -1 23 8 25 43 4 51 -9 4 -27 26 -41 50 -22
38 -29 43 -51 38 -20 -5 -30 -1 -49 22 -24 29 -24 29 -39 9 -11 -14 -14 -31
-10 -57 8 -44 -9 -57 -45 -38 -39 21 -100 82 -100 100 0 26 38 69 76 85 55 23
36 51 -26 38 -36 -7 -39 8 -7 30 15 10 29 12 38 6 22 -14 29 -11 29 12 0 34
137 87 155 59z m-465 -615 l23 -20 -7 20 c-17 43 -24 75 -16 70 4 -3 27 -39
49 -80 36 -64 45 -75 74 -80 18 -4 63 -29 100 -56 68 -50 81 -75 52 -99 -32
-27 -13 -105 38 -158 25 -26 31 -39 29 -69 -2 -21 -9 -44 -16 -53 -8 -8 -17
-31 -21 -50 -14 -74 -13 -72 -48 -53 -54 31 -175 153 -215 217 -81 128 -124
300 -108 430 l8 58 17 -28 c10 -16 29 -38 41 -49z"/>
</g>
</svg>
